<?xml version="1.0" encoding="iso-8859-1"?>
<!-- Generator: Adobe Illustrator 19.0.0, SVG Export Plug-In . SVG Version: 6.00 Build 0)  -->
<svg version="1.1" id="Layer_1" xmlns="http://www.w3.org/2000/svg" xmlns:xlink="http://www.w3.org/1999/xlink" x="0px" y="0px"
	 viewBox="0 0 512 512" style="enable-background:new 0 0 512 512;" xml:space="preserve">
<g>
	<g>
		<path d="M0,256l180.114,108.069V147.931L0,256z M164.413,336.338L30.516,256l133.898-80.338V336.338z"/>
	</g>
</g>
<g>
	<g>
		<path d="M331.886,147.932v216.137L512,256.001L331.886,147.932z M347.587,175.662L481.484,256l-133.898,80.339V175.662z"/>
	</g>
</g>
<g>
	<g>
		<path d="M256,195.814c-33.187,0-60.186,26.999-60.186,60.186s26.999,60.186,60.186,60.186s60.186-26.999,60.186-60.186
			S289.187,195.814,256,195.814z M256,300.485c-24.53,0-44.485-19.955-44.485-44.485S231.47,211.515,256,211.515
			S300.485,231.47,300.485,256S280.53,300.485,256,300.485z"/>
	</g>
</g>
<g>
</g>
<g>
</g>
<g>
</g>
<g>
</g>
<g>
</g>
<g>
</g>
<g>
</g>
<g>
</g>
<g>
</g>
<g>
</g>
<g>
</g>
<g>
</g>
<g>
</g>
<g>
</g>
<g>
</g>
</svg>
