<?xml version="1.0" encoding="iso-8859-1"?>
<!-- Generator: Adobe Illustrator 19.0.0, SVG Export Plug-In . SVG Version: 6.00 Build 0)  -->
<svg version="1.1" id="Capa_1" xmlns="http://www.w3.org/2000/svg" xmlns:xlink="http://www.w3.org/1999/xlink" x="0px" y="0px"
	 viewBox="0 0 493.1 493.1" style="enable-background:new 0 0 493.1 493.1;" xml:space="preserve">
<g>
	<g>
		<path d="M173.1,149.586h-55.3v-77.7l26.1,26.6c10.5,10.5,23.2,6,29.2,0c8.3-8.3,8.3-20.9,0-29.2l-61.5-61.4
			c-8.3-8.3-20.9-8.3-29.2,0l-61.5,61.5c-8.3,8.3-8.3,20.9,0,29.2s20.9,8.3,29.2,0l26.1-26.6v77.6H20.9c-11.5,0-20.9,9.4-20.9,20.9
			v152.2c0,11.5,9.4,20.9,20.9,20.9h55.3v77.1l-26.1-26.1c-8.3-8.3-20.9-8.3-29.2,0s-8.3,20.9,0,29.2l61.5,61.5
			c8.5,8.5,21.3,7.9,29.2,0l61.5-61.5c8.3-8.3,8.3-20.9,0-29.2c-8.3-8.3-20.9-8.3-29.2,0l-26.1,26.1v-77.1h55.3
			c11.5,0,20.9-9.4,20.9-20.9v-152.2C194,158.986,184.6,149.586,173.1,149.586z M152.3,301.886H41.8v-110.6h110.5V301.886z"/>
		<path d="M405.6,202.786c-8.3-8.3-20.9-8.3-29.2,0l-13.6,13.6l-13.6-13.6c-8.3-8.3-20.9-8.3-29.2,0c-8.3,8.3-8.3,20.9,0,29.2
			l13.6,13.6l-13.6,13.6c-8.3,8.3-8.3,20.9,0,29.2c11,11,25,5.2,29.2,0l13.6-13.6l13.6,13.6c4.2,5.2,18.2,11,29.2,0
			c8.3-8.3,8.3-20.9,0-29.2l-13.5-13.6l13.6-13.6C414,223.686,414,211.186,405.6,202.786z"/>
		<path d="M362.9,116.886c-71.8,0-130.2,58.4-130.2,130.2s58.4,130.2,130.2,130.2s130.2-58.4,130.2-130.2
			S434.7,116.886,362.9,116.886z M362.9,336.286c-49.2,0-89.2-40-89.2-89.2s40-89.2,89.2-89.2s89.2,40,89.2,89.2
			S412.1,336.286,362.9,336.286z"/>
	</g>
</g>
<g>
</g>
<g>
</g>
<g>
</g>
<g>
</g>
<g>
</g>
<g>
</g>
<g>
</g>
<g>
</g>
<g>
</g>
<g>
</g>
<g>
</g>
<g>
</g>
<g>
</g>
<g>
</g>
<g>
</g>
</svg>
